<?xml version="1.0" encoding="UTF-8"?>
<svg width="374.9" height="100" version="1.1" viewBox="0 0 374.9 100" xmlns="http://www.w3.org/2000/svg">
 <g fill="#11aaaf" stroke-width="7.4982">
  <path d="m20.517 4.2215c2.7219-2.7219 6.336-4.2215 10.198-4.2215 3.8466 0 7.4607 1.4996 10.183 4.2215 2.7294 2.7219 4.2215 6.3435 4.2215 10.198 0 3.8466-1.4996 7.4607-4.214 10.183-2.7294 2.7743-6.3435 4.274-10.198 4.274-3.8466 0-7.4682-1.4996-10.198-4.199-2.7144-2.6994-4.214-6.2985-4.214-10.198 0-3.8241 1.4996-7.4232 4.2215-10.198zm7.1983 13.197c0.79481 0.78731 1.8746 1.2297 2.9993 1.2297 1.1247 0 2.1895-0.44989 2.9993-1.2447 0.78731-0.74982 1.2297-1.7996 1.2297-2.9243s-0.44989-2.1745-1.2747-2.9993c-0.8248-0.74982-1.8746-1.1997-2.9993-1.1997s-2.2495 0.44989-2.9993 1.2747c-0.8248 0.8248-1.2747 1.8746-1.2747 2.9993 0 1.1247 0.44989 2.1745 1.1997 2.9993zm23.042 7.2433c1.9945-2.8493 5.8861-3.5242 8.6979-1.4996 2.8193 1.9495 3.4867 5.8486 1.4996 8.6979-3.6366 5.0988-7.9481 9.0728-12.867 11.772-2.7593 1.7996-5.9086 3.5242-9.2228 5.3237-2.8718 1.4996-5.8486 3.1493-8.623 4.8738-6.5234 4.049-10.273 7.7981-11.742 11.772-1.9795 5.2488-1.0872 9.6727 0 12.447 1.4547 3.6741 4.124 6.6734 7.4757 8.323 3.3742 1.7246 8.0606 1.5746 12.237-0.29993 3.8541-1.7771 6.4335-4.6489 6.7259-7.5732 0.29993-2.9993-0.99726-4.6489-2.3095-5.2488-1.5296-0.67484-3.2842 0-4.7989 1.9495-2.1445 2.6994-6.0736 3.1493-8.7729 1.0498-2.7144-2.1745-3.1792-6.0736-1.0498-8.7729 5.1288-6.5234 12.874-8.6979 19.735-5.6237 6.6284 2.9468 10.408 9.9726 9.6277 17.846-0.74982 7.4982-5.9986 14.097-14.022 17.718-7.6707 3.4492-16.286 3.4492-23.05-0.02999-6.0736-3.0968-10.842-8.398-13.422-14.906-2.6694-6.7484-2.6994-14.367-0.074982-21.415 2.5194-6.7859 7.7981-11.697 12.672-15.221-1.1772-0.4199-2.3244-0.88479-3.4492-1.4022-5.7586-2.4519-10.767-6.7559-14.876-12.552-1.9945-2.8268-1.3272-6.7259 1.4996-8.6979 2.8043-2.0245 6.7034-1.3497 8.6979 1.4696 2.8793 4.049 6.1185 6.8984 9.9126 8.623 2.8793 1.3497 6.0886 2.0245 9.7927 2.1145 3.7116-0.11247 6.9134-0.8248 9.7927-2.152 0.26994-0.12747 0.54737-0.25494 0.80981-0.3974 0.29993-0.14996 0.58486-0.29993 0.86979-0.46489 3.0743-1.7621 5.7886-4.3265 8.233-7.7981z"/>
  <path d="m125.93 32.415c0-1.5296-0.37491-2.6244-0.74982-3.2242h-11.322c-1.5971-0.4199-3.4792-0.67484-4.7014-0.67484-9.2378 0-15.649 4.6639-15.649 15.941 0 5.3987 1.4247 10.048 5.7511 12.597-2.7368 2.0245-5.8486 5.4737-5.9386 7.7232-0.09748 2.1745 2.0695 3.6741 5.6537 4.6489-3.9741 2.3244-7.1233 5.7736-7.1233 9.8227 0 4.4239 2.3994 9.6727 15.146 9.6727 12.522 0 17.996-6.6734 17.996-13.947 0-6.7484-5.6986-9.1478-11.697-9.9726-7.0483-0.88479-11.847-1.1247-11.847-2.5494 0-1.1997 1.1997-2.6244 2.3994-3.8241 1.1997 0.22495 2.6244 0.31492 4.199 0.31492 10.947 0 15.244-5.8486 15.244-14.846 0-4.2365-1.4247-7.4607-3.6741-9.5752 1.3122 0.24744 2.4444 0.4124 3.4792 0.4124 1.6271 0 2.6619-0.8548 2.6619-2.6994zm-21.115 37.993c0.56987 0.08998 1.1247 0.17246 1.7996 0.17246 8.293 0.50988 10.737 1.6121 10.737 5.4287 0 2.9693-2.9243 6.5234-9.6127 6.5234-6.411 0-7.9181-2.1145-7.9181-4.8289 0-2.7144 2.2645-5.5112 4.9938-7.2883zm3.7716-16.534c-5.7736 0-6.9734-3.8241-6.9734-9.9201 0-7.4682 3.2242-10.348 7.2733-10.348 4.5739 0 6.8984 2.6244 6.8984 8.8179 0 7.3782-2.1745 11.45-7.1233 11.45zm39.816-25.359c-8.7729 0-15.071 1.1022-16.496 2.0245-0.67484 0.4349-0.8248 1.2747-0.8248 2.212 0 0.59986 0.075 2.9693 1.0498 4.4239 2.9243-1.1997 9.0728-1.9645 13.347-1.9645 2.9243 0 4.9863 1.0198 4.9863 5.0088v7.1233c-1.8896-0.8473-4.7989-1.1022-7.1608-1.1022-6.0361 0-12.252 2.122-12.252 13.909 0 12.897 6.5984 13.399 13.497 13.317 6.1186 0 10.55-1.3647 13.092-2.7968 0 0 0.59986-12.05 0.59986-26.889v-4.9488c0-7.6482-3.5842-10.348-9.7102-10.348zm1.7246 37.829c-0.8248 0.8398-3.1492 1.3497-5.0988 1.3497-3.6741 0-5.9986-0.33742-5.9986-7.6332 0-7.4607 3.2242-8.6454 6.9733-8.6454 1.3497 0 3.2242 0.16496 4.424 0.76482 0 6.0736-0.22494 14.097-0.22494 14.097z" clipRule="evenodd" fillRule="evenodd"/>
  <path d="m168.1 31.313c3.6741-1.5296 10.46-2.7968 15.551-2.7968 11.472 0 12.672 3.8991 12.672 15.596v26.634c0 1.4472 0.075 1.4472-7.8731 1.4472v-28.418c0-6.6959-0.52488-9.2378-5.5487-9.2378-2.0245 0-4.9488 0.4274-7.0483 1.6121v34.642c0 1.4996 0.22495 1.4996-7.6482 1.4996v-40.948z"/>
  <path d="m225.38 12.994v17.223c-1.6046-1.0273-3.7716-1.7021-6.6959-1.7021-8.0981 0-14.509 7.1983-14.509 23.994 0 18.408 6.411 20.95 15.356 20.95 5.8486 0 10.273-0.8473 13.482-2.5494v-61.05c-6.2235 0-7.6332 0-7.6332 3.1493zm0 53.012c-1.4996 0.92978-3.4867 1.2597-5.5637 1.2597-4.424 0-7.0633-1.7996-7.0633-15.446 0-13.872 4.1465-17.171 8.293-17.171 1.972 0 3.1043 0.29993 4.334 1.1247v30.368z" clipRule="evenodd" fillRule="evenodd"/>
  <path d="m246.93 20.545c2.8343 0 4.2515-2.0395 4.349-5.5187 0-3.5617-0.94478-4.9188-3.8691-4.9188-3.0143 0-4.334 2.0395-4.334 5.0988-0.0975 3.9741 1.4247 5.2488 3.8616 5.3387zm-3.7491 12.372v39.291c7.7232 0 7.8132 0 7.8132-1.4472v-40.978c-6.2235 0-7.8206 0-7.8206 3.1493zm18.446 35.204c0 2.9693 1.1847 4.8364 4.7464 4.8364 2.9618 0 4.7464-2.212 4.7464-4.8364 0-2.9693-1.2747-4.9188-4.7464-4.9188-3.0593 0-4.7539 2.2495-4.7539 4.8738zm19.158-36.816c3.6741-1.5221 10.468-2.7893 15.551-2.7893 11.397 0 12.597 3.8991 12.597 15.596v26.634c0 1.4472 0.075 1.4472-7.9481 1.4472v-28.418c0-6.6959-0.59986-9.2378-5.5487-9.2378-2.0995 0-5.0238 0.4274-7.1233 1.6121v34.642c0 1.4996 0.14996 1.4996-7.6482 1.4996v-40.948z"/>
  <path d="m332.68 66.764c-5.0988 0-7.7232-1.5296-8.0081-11.787 4.4989 0 13.122-0.17246 19.645-1.3497 0.74982-3.0593 1.0498-7.3857 1.0498-11.202 0-9.0728-4.049-13.909-11.997-13.909-8.398 0-16.721 2.6244-16.721 24.669 0 17.321 6.2985 20.275 15.071 20.275 7.0483 0 12.972-2.0245 12.972-3.2242 0-1.8596-0.22494-4.8289-0.67484-6.1036-3.2242 1.6121-6.9733 2.6244-11.532 2.6244zm-0.0975-32.227c4.049 0 5.2787 2.5494 5.3762 8.6529 0 1.6046-0.075 3.7266-0.44989 5.2488-3.2992 0.8548-9.1478 1.0198-12.822 0.93728 0.59985-11.787 4.049-14.846 7.9481-14.846z" clipRule="evenodd" fillRule="evenodd"/>
  <path d="m357.67 60.151c0 7.6332 0 13.399 8.9454 13.399 3.6741 0 8.0981-0.74982 8.0981-2.7743 0-1.7246-0.27744-3.5991-0.56237-4.4989-1.972 0.74982-2.8268 1.2747-5.4737 1.2747-3.3742 0-3.3742-3.0743-3.3742-6.7484v-25.112h8.0981c1.4996 0 1.4996-0.57736 1.4996-5.9236h-9.5977v-15.251c-6.2235 0-7.6482 0-7.6482 2.3769v12.897h-4.7989c-1.6046 0-1.6946 0.67484-1.6946 5.9236h6.501v24.444z"/>
 </g>
</svg>
